<?xml version="1.0" encoding="utf-8"?>
<!-- Generator: Adobe Illustrator 24.1.0, SVG Export Plug-In . SVG Version: 6.00 Build 0)  -->
<svg version="1.1" id="Calque_1" xmlns="http://www.w3.org/2000/svg" xmlns:xlink="http://www.w3.org/1999/xlink" x="0px" y="0px"
	 viewBox="0 0 830 1080" style="enable-background:new 0 0 830 1080;" xml:space="preserve">
<style type="text/css">
	.st0{fill:#FFFFFF;}
</style>
<g>
	<g>
		<path class="st0" d="M194.2,698.8c8.4,8.6,12.6,20.5,12.6,35.6v96.8c0,1.9-1,2.9-2.9,2.9h-5.5c-1.9,0-2.9-1-2.9-2.9v-14.5
			c0-0.4-0.1-0.6-0.4-0.7c-0.3-0.1-0.6,0.1-1,0.4c-4.8,6.6-11.5,11.6-19.9,15c-8.4,3.4-17.6,5.1-27.5,5.1c-13.4,0-24.7-3.2-33.9-9.7
			c-9.2-6.5-13.8-16.7-13.8-30.7c0-14.3,5.3-25.5,15.8-33.6c10.6-8,25.1-12.1,43.7-12.1h35.7c0.8,0,1.2-0.4,1.2-1.2v-15.1
			c0-11.6-3.2-20.9-9.6-27.8c-6.4-6.9-16.4-10.3-29.9-10.3c-10.5,0-19.1,2.2-25.9,6.5c-6.8,4.4-10.9,10.2-12.5,17.6
			c-0.6,1.9-1.7,2.8-3.5,2.6l-6.1-0.9c-0.8-0.2-1.5-0.5-2-1c-0.6-0.5-0.8-1-0.6-1.6c1.9-10.1,7.5-18.2,16.7-24.3
			c9.2-6.1,20.7-9.2,34.4-9.2C173.3,685.8,185.8,690.1,194.2,698.8z M181.3,816.9c9.5-6.2,14.2-14.9,14.2-26.2v-29.6
			c0-0.8-0.4-1.2-1.2-1.2h-35.2c-14.5,0-26.3,3.2-35.3,9.4c-9,6.3-13.5,15-13.5,26c0,10.1,3.5,17.7,10.5,23c7,5.2,16,7.8,27,7.8
			C160.7,826.2,171.8,823.1,181.3,816.9z"/>
		<path class="st0" d="M262.1,831.1V633.5c0-1.9,1-2.9,2.9-2.9h5.5c1.9,0,2.9,1,2.9,2.9v197.6c0,1.9-1,2.9-2.9,2.9H265
			C263,834,262.1,833.1,262.1,831.1z"/>
		<path class="st0" d="M387.9,698h-35.2c-0.8,0-1.2,0.4-1.2,1.2v96.5c0,10.5,2.4,17.8,7.3,21.9c4.8,4.2,12.4,6.2,22.7,6.2h6.4
			c1.9,0,2.9,1,2.9,2.9v4.4c0,1.9-1,2.9-2.9,2.9h-7.3c-13,0-22.9-2.6-29.8-7.8c-6.9-5.2-10.3-14.7-10.3-28.5v-98.5
			c0-0.8-0.4-1.2-1.2-1.2h-17.7c-1.9,0-2.9-1-2.9-2.9v-4.1c0-1.9,1-2.9,2.9-2.9h17.7c0.8,0,1.2-0.4,1.2-1.2v-32.8
			c0-1.9,1-2.9,2.9-2.9h5.2c1.9,0,2.9,1,2.9,2.9V687c0,0.8,0.4,1.2,1.2,1.2h35.2c1.9,0,2.9,1,2.9,2.9v4.1
			C390.8,697.1,389.8,698,387.9,698z"/>
		<path class="st0" d="M527.5,698.8c8.4,8.6,12.6,20.5,12.6,35.6v96.8c0,1.9-1,2.9-2.9,2.9h-5.5c-1.9,0-2.9-1-2.9-2.9v-14.5
			c0-0.4-0.1-0.6-0.4-0.7c-0.3-0.1-0.6,0.1-1,0.4c-4.8,6.6-11.5,11.6-19.9,15c-8.4,3.4-17.6,5.1-27.5,5.1c-13.4,0-24.7-3.2-33.9-9.7
			c-9.2-6.5-13.8-16.7-13.8-30.7c0-14.3,5.3-25.5,15.8-33.6c10.6-8,25.1-12.1,43.7-12.1h35.7c0.8,0,1.2-0.4,1.2-1.2v-15.1
			c0-11.6-3.2-20.9-9.6-27.8c-6.4-6.9-16.4-10.3-29.9-10.3c-10.5,0-19.1,2.2-25.9,6.5c-6.8,4.4-10.9,10.2-12.5,17.6
			c-0.6,1.9-1.7,2.8-3.5,2.6l-6.1-0.9c-0.8-0.2-1.5-0.5-2-1c-0.6-0.5-0.8-1-0.6-1.6c1.9-10.1,7.5-18.2,16.7-24.3
			c9.2-6.1,20.7-9.2,34.4-9.2C506.5,685.8,519.1,690.1,527.5,698.8z M514.6,816.9c9.5-6.2,14.2-14.9,14.2-26.2v-29.6
			c0-0.8-0.4-1.2-1.2-1.2h-35.2c-14.5,0-26.3,3.2-35.3,9.4c-9,6.3-13.5,15-13.5,26c0,10.1,3.5,17.7,10.5,23c7,5.2,16,7.8,27,7.8
			C494,826.2,505.1,823.1,514.6,816.9z"/>
		<path class="st0" d="M565,652.7c-2.4-2.5-3.6-5.6-3.6-9.3c0-3.9,1.2-7.1,3.6-9.6c2.4-2.5,5.6-3.8,9.4-3.8c3.9,0,7.1,1.3,9.6,3.8
			c2.5,2.5,3.8,5.7,3.8,9.6c0,3.9-1.3,7-3.8,9.4c-2.5,2.4-5.7,3.6-9.6,3.6C570.6,656.5,567.4,655.2,565,652.7z M592.2,831.1V691.1
			c0-1.9,1-2.9,2.9-2.9h5.5c1.9,0,2.9,1,2.9,2.9v140.1c0,1.9-1,2.9-2.9,2.9h-5.5C593.1,834,592.2,833.1,592.2,831.1z M611.2,652.7
			c-2.4-2.5-3.6-5.6-3.6-9.3c0-3.9,1.2-7.1,3.6-9.6c2.4-2.5,5.6-3.8,9.4-3.8c3.9,0,7.1,1.3,9.6,3.8c2.5,2.5,3.8,5.7,3.8,9.6
			c0,3.9-1.3,7-3.8,9.4c-2.5,2.4-5.7,3.6-9.6,3.6C616.8,656.5,613.6,655.2,611.2,652.7z"/>
		<path class="st0" d="M729.3,690.2c1.5,0.6,2,1.8,1.5,3.8l-2,5.8c-0.6,1.9-1.7,2.4-3.5,1.5c-4.3-1.5-9.1-2.2-14.5-2
			c-7.6,0-14.3,2-20.3,6.1c-6,4.1-10.7,9.5-14.1,16.3c-3.4,6.8-5.1,14.2-5.1,22.4v87.2c0,1.9-1,2.9-2.9,2.9h-5.5
			c-1.9,0-2.9-1-2.9-2.9V691.1c0-1.9,1-2.9,2.9-2.9h5.5c1.9,0,2.9,1,2.9,2.9v21.8c0,0.6,0.1,0.9,0.4,1c0.3,0.1,0.5-0.1,0.7-0.7
			c4.1-8.1,9.5-14.5,16.3-19.2c6.8-4.6,14.6-7,23.5-7C719,687,724.7,688.1,729.3,690.2z"/>
	</g>
	<g>
		<path class="st0" d="M105.8,969.9c-4.7-5.4-7.1-11.9-7.1-19.5c0-7.6,2.4-14.1,7.1-19.5c4.7-5.4,10.3-8,17-8
			c5.5,0,10.1,1.5,13.9,4.4c3.8,2.9,6.1,6.8,7,11.7h-3.5c-0.6-3.7-2.6-6.7-5.9-9.1c-3.2-2.4-7-3.6-11.4-3.6
			c-5.7,0-10.5,2.4-14.5,7.1c-4,4.8-6,10.5-6,17.2c0,6.7,2,12.4,6,17.2c4,4.7,8.8,7.1,14.5,7.1c4.8,0,8.8-1.4,11.9-4.2
			c3.2-2.8,5-6.6,5.4-11.3h3.5c-0.5,5.7-2.6,10.3-6.5,13.7c-3.8,3.4-8.6,5.1-14.4,5.1C116.1,977.9,110.5,975.2,105.8,969.9z"/>
		<path class="st0" d="M158.5,969.9c-4.2-4.9-6.4-11.4-6.4-19.5c0-8.4,2.1-15.1,6.4-20.1c4.2-5,9.9-7.5,17-7.5
			c7.1,0,12.7,2.5,17,7.5c4.2,5,6.4,11.7,6.4,20.1c0,8.1-2.1,14.6-6.4,19.5c-4.2,4.9-9.9,7.3-17,7.3
			C168.4,977.2,162.8,974.7,158.5,969.9z M189.9,967.5c3.6-4.2,5.4-9.9,5.4-17.1c0-7.3-1.8-13.2-5.4-17.6c-3.6-4.4-8.4-6.6-14.4-6.6
			c-6,0-10.8,2.2-14.4,6.6c-3.6,4.4-5.4,10.3-5.4,17.6c0,7.1,1.8,12.8,5.4,17.1c3.6,4.3,8.4,6.5,14.4,6.5
			C181.5,973.9,186.3,971.8,189.9,967.5z"/>
		<path class="st0" d="M211.3,976.6v-52.4h5.6l19.2,48l19.1-48h5.6v52.4h-3.5v-48.4l-19.5,48.4h-3.3l-19.5-48.4v48.4H211.3z"/>
		<path class="st0" d="M276.1,976.6v-52.4h5.6l19.2,48l19.1-48h5.6v52.4H322v-48.4l-19.5,48.4h-3.3l-19.5-48.4v48.4H276.1z"/>
		<path class="st0" d="M345.7,972.6c-3.8-3.5-5.7-7.8-5.7-12.8v-35.6h3.5v35.6c0,4.1,1.6,7.6,4.8,10.5c3.1,2.9,6.9,4.3,11.4,4.3
			c4.2,0,7.9-1.4,11-4.3c3-2.9,4.5-6.4,4.5-10.5v-35.6h3.5v35.6c0,5-1.9,9.3-5.6,12.8c-3.7,3.5-8.2,5.3-13.4,5.3
			C354.2,977.9,349.6,976.1,345.7,972.6z"/>
		<path class="st0" d="M393.1,976.6v-52.4h4.9l31.7,48.1v-48.1h3.5v52.4h-4.9l-31.7-47.4v47.4H393.1z"/>
		<path class="st0" d="M448.5,976.6v-52.4h3.5v52.4H448.5z"/>
		<path class="st0" d="M471.4,969.9c-4.7-5.4-7.1-11.9-7.1-19.5c0-7.6,2.4-14.1,7.1-19.5c4.7-5.4,10.3-8,17-8
			c5.5,0,10.1,1.5,13.9,4.4c3.8,2.9,6.1,6.8,7,11.7h-3.5c-0.6-3.7-2.6-6.7-5.9-9.1c-3.2-2.4-7-3.6-11.4-3.6
			c-5.7,0-10.5,2.4-14.5,7.1c-4,4.8-6,10.5-6,17.2c0,6.7,2,12.4,6,17.2c4,4.7,8.8,7.1,14.5,7.1c4.8,0,8.8-1.4,11.9-4.2
			c3.2-2.8,5-6.6,5.4-11.3h3.5c-0.5,5.7-2.6,10.3-6.5,13.7c-3.8,3.4-8.6,5.1-14.4,5.1C481.7,977.9,476,975.2,471.4,969.9z"/>
		<path class="st0" d="M515.7,976.6l20.8-52.4h4.4l20.5,52.4h-4.1l-6.7-16.8h-24.2l-6.7,16.8H515.7z M549.3,956.4l-10.8-28.2
			l-11.1,28.2H549.3z"/>
		<path class="st0" d="M584.4,976.6v-49h-18v-3.5h39.6v3.5H588v49H584.4z"/>
		<path class="st0" d="M616.1,976.6v-52.4h3.5v52.4H616.1z"/>
		<path class="st0" d="M638.5,969.9c-4.2-4.9-6.4-11.4-6.4-19.5c0-8.4,2.1-15.1,6.4-20.1c4.2-5,9.9-7.5,17-7.5
			c7.1,0,12.7,2.5,17,7.5c4.2,5,6.4,11.7,6.4,20.1c0,8.1-2.1,14.6-6.4,19.5c-4.2,4.9-9.9,7.3-17,7.3
			C648.4,977.2,642.7,974.7,638.5,969.9z M669.9,967.5c3.6-4.2,5.4-9.9,5.4-17.1c0-7.3-1.8-13.2-5.4-17.6c-3.6-4.4-8.4-6.6-14.4-6.6
			c-6,0-10.8,2.2-14.4,6.6c-3.6,4.4-5.4,10.3-5.4,17.6c0,7.1,1.8,12.8,5.4,17.1c3.6,4.3,8.4,6.5,14.4,6.5
			C661.5,973.9,666.3,971.8,669.9,967.5z"/>
		<path class="st0" d="M691.3,976.6v-52.4h4.9l31.7,48.1v-48.1h3.5v52.4h-4.9l-31.7-47.4v47.4H691.3z"/>
	</g>
	<g>
		<path class="st0" d="M337.4,442c-1.1-0.5-1.6-1.8-1.1-2.9l0,0c0.5-1.1,1.8-1.6,2.9-1.1l0,0c1.1,0.5,1.6,1.8,1.1,2.9l0,0
			c-0.4,0.8-1.2,1.3-2,1.3l0,0C338,442.2,337.7,442.1,337.4,442z M359.7,397.1c-1.1-0.5-1.6-1.8-1.1-2.9l0,0
			c0.5-1.1,1.8-1.6,2.9-1.1l0,0c1.1,0.5,1.6,1.8,1.1,2.9l0,0c-0.4,0.8-1.2,1.3-2,1.3l0,0C360.3,397.3,360,397.2,359.7,397.1z"/>
		<path class="st0" d="M535.8,254.6c-0.8-0.9-0.7-2.3,0.2-3.1l0,0c0.9-0.8,2.3-0.7,3.1,0.2l0,0c0.8,0.9,0.7,2.3-0.2,3.1l0,0
			c-0.4,0.3-0.9,0.5-1.4,0.5l0,0C536.8,255.3,536.2,255,535.8,254.6z"/>
		<path class="st0" d="M621.5,221.6c-1.5,0-2.8,0.3-4.1,0.8l-86.8-111l0,0c1.1-1.4,1.7-3.1,1.7-5c0-4.6-3.7-8.4-8.4-8.4
			c-4.6,0-8.4,3.7-8.4,8.4c0,1.9,0.6,3.6,1.7,5c0,0,0,0,0,0l-57.1,78c0,0,0,0,0,0c-1-0.4-2.2-0.7-3.3-0.7c-4,0-7.3,2.8-8.2,6.4
			c0,0,0,0,0,0l-226.9-44.4c-0.9-5.3-5.5-9.3-11-9.3c-6.2,0-11.2,5-11.2,11.2c0,6.2,5,11.2,11.2,11.2c0.3,0,0.6-0.1,0.9-0.1
			c0,0,0,0,0,0l181.8,356.7c-0.4,0.6-0.8,1.3-1.1,1.9l-76.6-22.1c0-0.1,0-0.2,0-0.4c0-2.2-1-4.2-2.6-5.5l17.5-34.5
			c0.5-1.1,0-2.4-1.1-2.9c-1.1-0.5-2.4,0-2.9,1.1l-17.5,34.6c0,0,0,0,0,0c-0.2,0-0.5-0.1-0.7-0.1c-4,0-7.3,3.3-7.3,7.3
			c0,4,3.3,7.3,7.3,7.3c2.3,0,4.4-1.1,5.7-2.8l0,0l77.2,22.3c0,0,0,0,0,0c0,0.1,0,0.2,0,0.4c0,6.3,5.1,11.5,11.5,11.5
			c6.3,0,11.5-5.1,11.5-11.5c0-1.5-0.3-3-0.8-4.3c0,0,0,0,0,0l205.6-279c0.8,0.2,1.6,0.3,2.5,0.3c6.2,0,11.2-5,11.2-11.2
			C632.7,226.6,627.7,221.6,621.5,221.6z M308.4,504.2c-2.4,0-4.4-2-4.4-4.4s2-4.4,4.4-4.4c2.4,0,4.4,2,4.4,4.4
			S310.8,504.2,308.4,504.2z M314.7,503.3C314.7,503.3,314.7,503.4,314.7,503.3C314.7,503.4,314.7,503.3,314.7,503.3z M524,100.9
			c3,0,5.4,2.4,5.4,5.4s-2.4,5.4-5.4,5.4c-3,0-5.4-2.4-5.4-5.4S520.9,100.9,524,100.9z M463.6,192l57.1-78c1,0.4,2.1,0.7,3.2,0.7
			c1.1,0,2.2-0.2,3.2-0.6l86.6,110.7c-0.6,0.6-1.1,1.2-1.5,1.8l-147-28.3c0.1-0.4,0.1-0.8,0.1-1.2
			C465.3,195.2,464.7,193.4,463.6,192C463.6,192,463.6,192,463.6,192z M456.8,191.5c3.1,0,5.6,2.5,5.6,5.6s-2.5,5.6-5.6,5.6
			c-3.1,0-5.6-2.5-5.6-5.6S453.8,191.5,456.8,191.5z M221.6,155C221.6,155,221.6,155,221.6,155l227.2,44.5c0,0,0,0,0,0
			c0.5,1.5,1.3,2.8,2.5,3.9c0,0,0,0,0,0l-34.6,67.4c-0.3,0-0.6-0.1-0.9-0.1c-4.2,0-7.9,2-10.4,5.1L220.6,157.6
			C221,156.8,221.4,155.9,221.6,155z M210.7,160.8c-4.6,0-8.3-3.7-8.3-8.3c0-4.6,3.7-8.3,8.3-8.3s8.3,3.7,8.3,8.3
			C219,157.1,215.3,160.8,210.7,160.8z M402.8,534.8c-4.4,0-8-3.6-8-8s3.6-8,8-8s8,3.6,8,8S407.1,534.8,402.8,534.8z M407,516.2
			c-1.3-0.5-2.7-0.8-4.2-0.8c-0.4,0-0.8,0.1-1.3,0.1L216,162.3c0.6-0.3,1.2-0.7,1.8-1.2l184.6,122.6c0,0.1,0,0.1,0,0.2
			c0,3.7,1.5,7,3.9,9.4c-0.1,0.1-0.2,0.1-0.2,0.2l-38.6,81.5c-0.5,1.1,0,2.4,1.1,2.9c0.3,0.1,0.6,0.2,0.9,0.2c0.8,0,1.6-0.5,2-1.3
			l43.6-79.7c0.3,0,0.5,0.1,0.8,0.1c6.7,0,12.1-4.9,13.1-11.3l87.8-25.8c1.2-0.3,1.9-1.5,1.6-2.6c-0.3-1.2-1.5-1.9-2.6-1.6
			l-89.1,20.2c-0.5-0.7-1.1-1.4-1.8-2l30.8-68.8c0,0,0,0,0,0c0.4,0.1,0.9,0.1,1.3,0.1c2.7,0,5-1.3,6.6-3.2l147.1,28.4
			c-0.1,0.7-0.2,1.3-0.2,2c0,0.1,0,0.3,0,0.4l-52.8,12.5c-1.2,0.3-1.9,1.5-1.6,2.6c0.2,1,1.1,1.7,2.1,1.7c0.2,0,0.4,0,0.5-0.1
			l52.7-12.5v0c0.8,1.7,2,3.1,3.4,4.2L407,516.2z M621.5,241c-4.6,0-8.3-3.7-8.3-8.3c0-4.6,3.7-8.3,8.3-8.3c4.6,0,8.3,3.7,8.3,8.3
			C629.8,237.3,626.1,241,621.5,241z"/>
	</g>
</g>
</svg>
